# xmcd
#
# Track frame offsets: 
#        150
#        14927
#        33813
#        48962
#        74905
#        92306
#        107655
#        123541
#        133592
#        157277
#        174453
#        192616
#        215459
#
# Disc length: 3043 seconds
#
# Revision: 0
# Processed by: cddbd v1.4b42PL1 Copyright (c) Steve Scherf et al.
# Submitted via: ExactAudioCopy v0.90a11
#
DISCID=c20be10d
DTITLE=The Daily Blues - Trouble
DYEAR=1900
DGENRE=
TTITLE0=The Daily Blues
TTITLE1=Move A Little Closer
TTITLE2=Trouble
TTITLE3=How Blue Can You Get
TTITLE4=When She Walks
TTITLE5=Peace Of Mind
TTITLE6=Cold Hearted Woman
TTITLE7=Big Legged Woman
TTITLE8=Tow Truck Blues
TTITLE9=Don't Mess With Me
TTITLE10=New Day Rising
TTITLE11=Angel Of Mercy
TTITLE12=Baby, The Kids Are Asleep
EXTD=
EXTT0=
EXTT1=
EXTT2=
EXTT3=
EXTT4=
EXTT5=
EXTT6=
EXTT7=
EXTT8=
EXTT9=
EXTT10=
EXTT11=
EXTT12=
PLAYORDER=
